<svg xmlns="http://www.w3.org/2000/svg" width="250" height="250" viewBox="0 0 23.813 23.813"><g><animateTransform attributeName="transform" dur="1.3s" from="0 11.90625 11.90625" repeatCount="indefinite" to="360 11.90625 11.90625" type="rotate"/><path d="M2.97 11.905a1 1 0 0 0 1 1 1 1 0 0 0 1-1 1 1 0 0 0-1-1 1 1 0 0 0-1 1" style="fill:#1ec85a"/><path d="M4.97 11.906v.017a7.53 7.53 0 0 0 2.185 5.257 7.53 7.53 0 0 0 5.262 2.172 7.53 7.53 0 0 0 5.256-2.185 7.53 7.53 0 0 0 2.17-5.069 8.55 8.55 0 0 1-2.469 5.775 8.54 8.54 0 0 1-5.967 2.472c-2.21 0-4.405-.91-5.968-2.472a8.54 8.54 0 0 1-2.472-5.967Z" style="fill:#1ec85a;fill-opacity:1"/></g></svg>